<svg width="66" height="88" viewBox="0 0 66 88" fill="none" xmlns="http://www.w3.org/2000/svg">
<g id="freepik--speech-bubble--inject-2">
<g id="freepik--speech-bubble--inject-2_2">
<g id="freepik--speech-bubble--inject-2_3">
<path id="Vector" d="M36.819 83.3434L32.4791 75.176L35.9675 65.0909V58.9158L25.2789 65.0909V71.266L29.8751 79.2266C29.9454 79.3529 30.056 79.4519 30.1892 79.5077L36.819 83.3434Z" fill="#063E51"/>
<path id="Vector_2" d="M66 7.8282C65.9388 6.71553 65.6165 5.63288 65.0593 4.66783C64.5021 3.70278 63.7256 2.88242 62.7926 2.27309L60.1804 0.76858C59.1882 0.263364 58.0905 0 56.9771 0C55.8637 0 54.766 0.263364 53.7738 0.76858L3.20741 29.8254C2.27439 30.4348 1.49789 31.2551 0.940689 32.2202C0.383492 33.1852 0.0612259 34.2679 -1.52588e-05 35.3806V79.4247C0.0605774 80.5375 0.382545 81.6204 0.939812 82.5855C1.49707 83.5507 2.27394 84.3709 3.20741 84.9798L5.81963 86.4843C6.81184 86.9895 7.90948 87.2528 9.02291 87.2528C10.1363 87.2528 11.234 86.9895 12.2262 86.4843L31.9584 75.1509L36.5794 83.1033C36.6459 83.2163 36.7433 83.3079 36.8602 83.3672C36.9771 83.4266 37.1086 83.4512 37.2391 83.4381C37.3695 83.4251 37.4935 83.3749 37.5964 83.2936C37.6992 83.2123 37.7766 83.1032 37.8194 82.9793L42.6636 68.984L62.7926 57.4109C63.727 56.803 64.5045 55.983 65.0619 55.0176C65.6193 54.0523 65.9407 52.9689 66 51.8558V7.8282Z" fill="#1C5366"/>
<path id="Vector_3" d="M7.72476e-05 79.4251C0.0606689 80.5379 0.382641 81.6208 0.9399 82.5859C1.49716 83.5511 2.27403 84.3713 3.2075 84.9802L5.81972 86.4847C6.72255 86.9402 7.71165 87.1993 8.72187 87.2449C9.73209 87.2905 10.7405 87.1216 11.6807 86.7492C10.1762 87.3196 9.02714 86.4682 9.02714 84.633V40.5889C9.06366 39.4738 9.38526 38.3866 9.96127 37.4311L0.942474 32.2231C0.36424 33.1782 0.0398235 34.2652 7.72476e-05 35.381V79.4251Z" fill="#063E51"/>
<path id="Vector_4" d="M65.8511 6.91919C65.4791 5.55522 64.2391 5.12536 62.7594 5.97681L12.1847 35.042C11.2346 35.6249 10.4559 36.4492 9.928 37.431L0.90921 32.2313C1.44164 31.2506 2.21919 30.4247 3.16598 29.834L53.7654 0.768896C54.7603 0.267441 55.8588 0.00622559 56.9729 0.00622559C58.0869 0.00622559 59.1855 0.267441 60.1803 0.768896L62.8008 2.28167C63.5952 2.80952 64.2749 3.49235 64.799 4.28924C65.3232 5.08613 65.681 5.98066 65.8511 6.91919Z" fill="#1C5366"/>
</g>
<path id="Vector_5" d="M17.9054 42.4985L54.8733 21.1543C55.6008 20.7327 56.196 21.0799 56.196 21.9148V47.4584C56.1695 47.9157 56.036 48.3603 55.8062 48.7566C55.5765 49.1529 55.257 49.4897 54.8733 49.74L17.9054 71.0842C17.1779 71.5058 16.5827 71.1668 16.5827 70.3236V44.7883C16.608 44.3296 16.7409 43.8833 16.9707 43.4855C17.2004 43.0877 17.5207 42.7495 17.9054 42.4985Z" fill="#27C293"/>
<path id="Vector_6" d="M21.7656 66.6535C21.8728 66.6515 21.9779 66.6231 22.0715 66.5709L52.2278 49.1533C52.3212 49.1003 52.3989 49.0233 52.4526 48.9303C52.5064 48.8373 52.5344 48.7316 52.5337 48.6242C52.5357 48.0893 52.678 47.5643 52.9464 47.1016C53.2147 46.6389 53.5997 46.2546 54.0629 45.9872C54.1553 45.9329 54.232 45.8557 54.2856 45.763C54.3392 45.6702 54.3679 45.5652 54.3688 45.4581V27.7843C54.3671 27.6773 54.3381 27.5726 54.2845 27.4801C54.231 27.3875 54.1547 27.3101 54.0629 27.2552C53.9697 27.2023 53.8643 27.1745 53.7571 27.1745C53.6499 27.1745 53.5445 27.2023 53.4512 27.2552C53.2656 27.3605 53.0556 27.4154 52.8422 27.4144C52.6287 27.4134 52.4193 27.3566 52.2346 27.2497C52.0499 27.1427 51.8964 26.9893 51.7893 26.8046C51.6823 26.62 51.6254 26.4105 51.6243 26.1971C51.6245 26.0909 51.5962 25.9866 51.5424 25.895C51.4886 25.8034 51.4113 25.7279 51.3185 25.6763C51.2267 25.6192 51.1207 25.5889 51.0126 25.5889C50.9045 25.5889 50.7985 25.6192 50.7067 25.6763L20.5504 43.0856C20.4575 43.1393 20.3804 43.2164 20.3267 43.3092C20.273 43.4021 20.2447 43.5074 20.2446 43.6147C20.2433 44.1498 20.1014 44.6751 19.8329 45.1379C19.5645 45.6008 19.1791 45.9849 18.7153 46.2517C18.6245 46.307 18.5494 46.3847 18.4973 46.4773C18.4452 46.57 18.4177 46.6745 18.4177 46.7808V64.4546C18.4186 64.5607 18.4471 64.6648 18.5004 64.7565C18.5537 64.8483 18.63 64.9246 18.7217 64.978C18.8134 65.0313 18.9175 65.0599 19.0236 65.0609C19.1297 65.0619 19.2343 65.0353 19.327 64.9837C19.5122 64.8757 19.7227 64.8187 19.9372 64.8185C20.1516 64.8182 20.3622 64.8746 20.5478 64.9821C20.7333 65.0896 20.8871 65.2442 20.9936 65.4303C21.1 65.6164 21.1553 65.8274 21.1539 66.0418C21.154 66.1491 21.1823 66.2544 21.236 66.3473C21.2897 66.4401 21.3668 66.5172 21.4597 66.5709C21.5537 66.6222 21.6586 66.6505 21.7656 66.6535ZM51.335 48.2687L22.1872 65.0912C21.9822 64.6005 21.6183 64.1929 21.1539 63.9338C20.6949 63.6656 20.1606 63.5552 19.6328 63.6197V47.0866C20.1454 46.7286 20.5732 46.2625 20.886 45.7212C21.1988 45.1798 21.389 44.5765 21.4432 43.9536L50.591 27.1477C50.8034 27.634 51.1661 28.0393 51.6258 28.3042C52.0856 28.569 52.6182 28.6795 53.1454 28.6192V45.1523C52.6356 45.5093 52.2097 45.973 51.8971 46.5112C51.5845 47.0493 51.3927 47.6491 51.335 48.2687Z" fill="#1C5366"/>
<path id="Vector_7" d="M33.9507 53.7738C34.9221 53.7431 35.8685 53.4581 36.6952 52.9472C38.3757 51.8555 39.7754 50.3833 40.7807 48.6497C41.7861 46.9162 42.3689 44.9702 42.4818 42.9695C42.4818 41.0599 41.8039 39.6628 40.5805 38.9106C39.357 38.1583 37.7616 38.3402 36.1083 39.2908C34.4287 40.3835 33.0298 41.856 32.0245 43.5893C31.0193 45.3226 30.436 47.2681 30.3217 49.2686C30.3217 51.1781 30.9996 52.6248 32.2313 53.3274C32.7547 53.6261 33.3481 53.7801 33.9507 53.7738ZM38.8197 39.6794C39.2136 39.6738 39.6018 39.7737 39.944 39.9687C40.7706 40.4482 41.2336 41.5145 41.2336 42.9695C41.1376 44.7556 40.6221 46.4941 39.7287 48.0438C38.8354 49.5935 37.5894 50.9109 36.0918 51.889C34.8353 52.6165 33.6779 52.7157 32.843 52.2776C32.0081 51.8394 31.5535 50.7235 31.5535 49.2686C31.6503 47.4816 32.1671 45.7427 33.062 44.193C33.9568 42.6432 35.2044 41.3262 36.7035 40.349C37.3399 39.9482 38.0686 39.7176 38.8197 39.6794Z" fill="#1C5366"/>
</g>
</g>
</svg>
